<svg width="541.1" height="116" viewBox="0 0 541.1 116" xmlns="http://www.w3.org/2000/svg" xmlns:xlink="http://www.w3.org/1999/xlink" overflow="hidden"><defs></defs><g><rect x="0" y="0" width="541.1" height="116" fill="#00508A"/><g><g><g><g><g><path d="M34.11 77.74 27.34 77.74 27.34 81.84 32.56 81.84 32.56 83.73 27.34 83.73 27.34 90.6 25.22 90.6 25.22 75.84 34.11 75.84Z" fill="#FFDD00"/></g><g><path d="M42.62 75.66C47.49 75.66 50.56 79.12 50.56 83.22 50.56 87.2 47.57 90.79 42.58 90.79 37.76 90.79 34.7 87.23 34.7 83.22 34.7 79.14 37.83 75.66 42.62 75.66M42.62 88.85C45.94 88.85 48.37 86.44 48.37 83.22 48.37 79.98 45.94 77.6 42.62 77.6 39.32 77.6 36.89 79.99 36.89 83.22 36.89 86.44 39.32 88.85 42.62 88.85" fill="#FFDD00"/></g><g><path d="M63.93 75.84 54.55 88.7 63.93 88.7 63.93 90.6 50.64 90.6 60.01 77.74 51.21 77.74 51.21 75.84Z" fill="#FFDD00"/></g><g><path d="M79.12 75.84 69.74 88.7 79.12 88.7 79.12 90.6 65.82 90.6 75.21 77.74 66.41 77.74 66.41 75.84Z" fill="#FFDD00"/></g><g><path d="M82.83 75.84 86.81 80.93 90.81 75.84 93.37 75.84 87.88 82.81 87.88 90.6 85.76 90.6 85.76 82.79 80.28 75.84Z" fill="#FFDD00"/></g></g><g><path d="M63.41 25.22 63.41 41.46C62.05 41.59 60.69 41.68 59.29 41.68 57.9 41.68 56.52 41.6 55.17 41.46L55.16 25.22 25.24 25.24 25.24 28.24C31.82 36.48 41.33 42.27 52.2 44.05L52.2 69.3 55.17 69.3 55.17 44.43C56.53 44.56 57.9 44.64 59.29 44.64 60.68 44.64 62.05 44.56 63.41 44.43L63.41 57.49 59.12 57.49 59.12 60.46 66.38 60.46 66.38 44.06C77.24 42.28 86.75 36.48 93.33 28.25L93.33 25.25 63.41 25.22ZM28.98 28.06 52.2 28.06 52.2 41.06C43.03 39.44 34.93 34.74 28.98 28.06M66.39 41.06 66.39 28.06 89.62 28.06C83.66 34.74 75.56 39.44 66.39 41.06" fill="#FFDD00"/></g></g></g><g><path d="M214.15 27.63C213.43 26.15 211.93 25.22 210.28 25.22 208.64 25.22 207.14 26.15 206.41 27.63L178.5 84.58C177.45 86.71 178.34 89.29 180.47 90.34 181.08 90.64 181.73 90.78 182.36 90.78 183.95 90.78 185.48 89.89 186.23 88.37L210.28 39.3 231.29 82.17 210.28 82.17C207.9 82.17 205.97 84.1 205.97 86.48 205.97 88.86 207.9 90.79 210.28 90.79L238.19 90.79C239.68 90.79 241.06 90.02 241.84 88.76 242.63 87.5 242.71 85.92 242.05 84.59L214.15 27.63Z" fill="#FFDD00"/><path d="M332.99 25.69C331.55 24.95 329.81 25.09 328.5 26.04L291.11 53.21 254.16 26.05C252.85 25.09 251.11 24.95 249.67 25.68 248.22 26.41 247.31 27.9 247.31 29.52L247.31 86.47C247.31 88.85 249.24 90.78 251.62 90.78 254 90.78 255.93 88.85 255.93 86.47L255.93 38.03 288.56 62.01C290.07 63.12 292.13 63.13 293.64 62.02L326.74 37.97 326.74 86.47C326.74 88.85 328.67 90.78 331.05 90.78 333.43 90.78 335.36 88.85 335.36 86.47L335.36 29.52C335.35 27.9 334.44 26.42 332.99 25.69Z" fill="#FFDD00"/><path d="M178.64 46.85C178.72 46.75 178.81 46.66 178.88 46.55 178.97 46.43 179.04 46.3 179.12 46.17 179.18 46.06 179.25 45.95 179.3 45.83 179.36 45.7 179.41 45.56 179.46 45.42 179.5 45.29 179.55 45.17 179.58 45.04 179.61 44.91 179.63 44.77 179.65 44.63 179.67 44.48 179.69 44.33 179.7 44.18 179.7 44.13 179.72 44.07 179.72 44.02L179.72 29.52C179.72 27.14 177.79 25.21 175.41 25.21 173.03 25.21 171.1 27.14 171.1 29.52L171.1 32.45C165.36 27.85 158.16 25.21 150.58 25.21 132.5 25.21 117.8 39.92 117.8 57.99 117.8 76.06 132.51 90.77 150.58 90.77 158.81 90.77 166.68 87.71 172.74 82.15 174.49 80.54 174.61 77.82 173 76.07 171.39 74.32 168.67 74.2 166.92 75.81 162.45 79.91 156.65 82.17 150.58 82.17 137.25 82.17 126.41 71.33 126.41 58 126.41 44.67 137.25 33.83 150.58 33.83 156.47 33.83 162.06 35.99 166.39 39.73L160.89 39.73C158.51 39.73 156.58 41.66 156.58 44.04 156.58 46.42 158.51 48.35 160.89 48.35L175.4 48.35C175.49 48.35 175.57 48.33 175.66 48.32 175.79 48.31 175.92 48.3 176.05 48.28 176.21 48.26 176.37 48.22 176.52 48.18 176.63 48.15 176.74 48.12 176.86 48.08 177.03 48.02 177.18 47.95 177.34 47.87 177.4 47.84 177.46 47.82 177.52 47.79 177.56 47.77 177.59 47.73 177.64 47.71 177.79 47.62 177.92 47.52 178.06 47.42 178.15 47.35 178.25 47.27 178.34 47.19 178.44 47.08 178.54 46.97 178.64 46.85Z" fill="#FFDD00"/><path d="M515.67 69.16C515.21 67.3 514.06 65.73 512.42 64.73 512.15 64.57 511.88 64.43 511.59 64.31 508.61 58.05 502.24 53.7 494.85 53.7L481.36 53.7C477.85 53.7 474.77 51.87 473 49.12 474.13 47.49 474.6 45.4 474.09 43.32 474.09 43.32 474.09 43.32 474.09 43.32 473.77 42 473.09 40.86 472.19 39.96 473.69 36.37 477.23 33.84 481.36 33.84L494.85 33.84C498.87 33.84 502.33 36.25 503.89 39.69 503.37 40.16 502.92 40.7 502.55 41.31 501.56 42.95 501.26 44.88 501.72 46.74 502.52 50.01 505.46 52.21 508.69 52.21 509.25 52.21 509.83 52.14 510.4 52 514.24 51.06 516.6 47.16 515.66 43.32 515.24 41.61 514.22 40.14 512.79 39.15 510.73 31.16 503.48 25.23 494.85 25.23L481.36 25.23C472.85 25.23 465.67 31 463.5 38.84 462.48 39.43 461.61 40.28 460.98 41.32 459.99 42.96 459.69 44.89 460.15 46.75 460.74 49.15 462.48 50.96 464.64 51.76 467.63 58 473.99 62.32 481.35 62.32L494.84 62.32C498.19 62.32 501.16 64 502.96 66.55 502.81 66.74 502.67 66.95 502.55 67.16 501.56 68.8 501.26 70.73 501.72 72.59 502.08 74.06 502.89 75.3 503.95 76.23 502.41 79.73 498.92 82.19 494.85 82.19L481.36 82.19C477.2 82.19 473.64 79.62 472.16 75.98 472.57 75.57 472.95 75.11 473.26 74.6 474.25 72.96 474.55 71.03 474.09 69.17 474.09 69.17 474.09 69.17 474.09 69.17 473.15 65.33 469.25 62.97 465.41 63.91 463.55 64.37 461.98 65.52 460.98 67.16 459.99 68.8 459.69 70.73 460.15 72.59 460.61 74.45 461.76 76.02 463.4 77.02 463.42 77.03 463.44 77.04 463.47 77.05 465.59 84.95 472.8 90.8 481.36 90.8L494.85 90.8C503.52 90.8 510.81 84.8 512.82 76.75 513.62 76.19 514.3 75.47 514.83 74.6 515.83 72.95 516.13 71.02 515.67 69.16ZM505.4 45.83C505.18 44.95 505.32 44.04 505.79 43.26 506.26 42.48 507 41.94 507.89 41.72 508.16 41.65 508.43 41.62 508.7 41.62 509.31 41.62 509.92 41.79 510.45 42.11 511.23 42.58 511.77 43.32 511.99 44.21 512.44 46.03 511.32 47.87 509.5 48.32 507.69 48.77 505.85 47.65 505.4 45.83ZM467.95 48.32C466.13 48.76 464.29 47.65 463.84 45.83 463.62 44.95 463.76 44.04 464.23 43.26 464.7 42.48 465.44 41.94 466.33 41.72 466.6 41.65 466.87 41.62 467.14 41.62 468.67 41.62 470.06 42.66 470.44 44.21 470.88 46.03 469.76 47.87 467.95 48.32ZM470.44 70.06C470.66 70.94 470.52 71.85 470.05 72.63 469.58 73.41 468.84 73.95 467.95 74.17 466.13 74.61 464.29 73.5 463.84 71.68 463.62 70.8 463.76 69.89 464.23 69.11 464.7 68.33 465.44 67.79 466.33 67.57 466.6 67.5 466.87 67.47 467.14 67.47 468.66 67.47 470.06 68.51 470.44 70.06ZM511.61 72.62C511.14 73.4 510.4 73.94 509.51 74.16 507.69 74.6 505.85 73.49 505.4 71.67 505.18 70.79 505.32 69.88 505.79 69.1 506.26 68.32 507 67.78 507.89 67.56 508.16 67.49 508.43 67.46 508.7 67.46 509.31 67.46 509.92 67.63 510.45 67.95 511.23 68.42 511.77 69.16 511.99 70.05 512.22 70.94 512.08 71.85 511.61 72.62Z" fill="#FFDD00"/><path d="M368.96 25.22C362.08 25.22 355.61 27.9 350.74 32.77 346.17 37.34 343.49 43.42 343.22 49.88 343.22 49.94 343.22 50 343.22 50.06L343.22 86.48C343.22 88.86 345.15 90.79 347.53 90.79 349.91 90.79 351.84 88.86 351.84 86.48L351.84 50.15C352.04 45.88 353.82 41.88 356.84 38.85 360.08 35.61 364.39 33.83 368.97 33.83 373.55 33.83 377.86 35.61 381.1 38.85 384.34 42.09 386.12 46.4 386.12 50.98 386.12 55.56 384.34 59.87 381.1 63.11 376.73 67.48 370.31 69.17 364.34 67.5 362.05 66.86 359.67 68.2 359.04 70.49 358.4 72.78 359.74 75.16 362.03 75.79 370.98 78.28 380.62 75.76 387.19 69.19 392.06 64.32 394.74 57.85 394.74 50.97 394.74 44.09 392.06 37.62 387.19 32.75 382.31 27.9 375.84 25.22 368.96 25.22Z" fill="#FFDD00"/><path d="M449.98 25.22C447.6 25.22 445.67 27.15 445.67 29.53L445.67 64.7C445.67 74.33 437.83 82.17 428.2 82.17 418.57 82.17 410.73 74.33 410.73 64.7L410.73 29.52C410.73 27.14 408.8 25.21 406.42 25.21 404.04 25.21 402.11 27.14 402.11 29.52L402.11 64.7C402.11 79.08 413.81 90.78 428.19 90.78 442.57 90.78 454.27 79.08 454.27 64.7L454.27 29.52C454.29 27.15 452.36 25.22 449.98 25.22Z" fill="#FFDD00"/></g></g></g></svg>