<svg width="93.16" height="79.64" viewBox="0 0 93.16 79.64" xmlns="http://www.w3.org/2000/svg" xmlns:xlink="http://www.w3.org/1999/xlink" overflow="hidden"><defs></defs><path d="M91.1 7.77C83.12 5.92 75.77 2.86 68.1 0.11 66.1-0.61 65.23 2.25 66.75 3.32 69.32 5.14 72.1 6.69 75 8.02 66.81 8.93 58.4 11.48 51.18 14.26 41.5 17.99 32.29 23.33 24.31 29.97 11.08 40.99-2.24 60.79 0.32 78.93 0.47 79.97 2 79.8 2.25 78.93 4.84 70.14 6.55 61.88 11.42 53.91 16.19 46.11 22.63 39.01 29.94 33.51 37.67 27.7 46.47 23.8 55.7 21.02 63.42 18.7 71.24 17.88 79.05 16.58 75.28 20.8 72.23 25.71 70.85 30.76 70.04 33.73 74.17 35.42 75.77 32.83 78.2 28.9 80.02 24.82 83 21.21 85.76 17.86 88.97 15.12 92.33 12.4 93.95 11.09 93 8.21 91.1 7.77Z" fill="#00508A"/></svg>